<?xml version="1.0" encoding="utf-8"?>
<!-- Generator: Adobe Illustrator 23.0.1, SVG Export Plug-In . SVG Version: 6.00 Build 0)  -->
<svg version="1.1" xmlns="http://www.w3.org/2000/svg" xmlns:xlink="http://www.w3.org/1999/xlink" x="0px" y="0px"
	 viewBox="0 0 800 600" style="enable-background:new 0 0 800 600;" xml:space="preserve">
<style type="text/css">
	.st0{fill:#808080;stroke:#FFFFFF;stroke-width:0.5;stroke-linecap:round;stroke-linejoin:round;}
	.st1{font-family:'Roboto-Regular';}
	.st2{font-size:14px;}
</style>
<g id="Tunisia">
	<path class="st0" d="M504.585,420.179l-19.472,9.344l-1.719,1.853l-2.539,5.904l-2.064,2.069l-2.285,1.42l-2.109,1.723l-1.23,0.384
		l-1.152-0.46l-1.133-0.648l-1.185-0.161l-1.419,1.523l-0.527,5.944l-0.82,2.464l-2.656,2.494l-1.061,2.562l-0.755,1.114
		l-0.924,0.942l-1.029,0.831l-3.45,1.37l-7.077-0.092l-3.242,2.617l-4.251,7.539l-4.023,4.511l-0.99,1.71l-0.671,4.816l0.117,1.282
		l4.7,12.613l1.921,7.762l1.992,4.209l0.085,1.368l-0.352,2.823l0.28,2.605l1.582,5.147l-0.026,2.458l-0.996,2.962l-3.887,8.105
		l-5.735,6.56l-6.647,10.767l-7.832,10.181l-1.608,0.939l-4.59,0.305l-1.855,0.494L399.857,570l-1.784-8.029l-1.784-8.038
		l-1.784-8.043l-1.79-8.052l-1.79-8.065l-1.784-8.071l-1.784-8.084l-1.784-8.093l-1.797-8.099l-1.777-8.112l-1.79-8.118
		l-1.784-8.131l-1.784-8.141l-1.79-8.143l-1.777-8.16l-1.797-8.17l-0.169-0.781l-1.152-5.324l-0.71-1.406l-0.872-1.049
		l-10.605-7.692l-13.177-9.567l-10.058-7.32l-7.728-4.944l-1.723-1.893l1.164-0.361l73.893-15.275l1.582-0.728l0.667-0.391
		l2.568-2.195l1.302-0.813l1.533-0.527l1.663-0.376l2.031-0.168l0.771,0.056l0.97,0.215l1.152,0.42l0.517,0.316l0.557,0.438
		l0.264,0.255l1.995,2.512l6.803,5.488l1.562,0.914l0.693,0.277l0.326,0.072l0.283,0.015l0.293-0.027l0.244-0.145l0.166-0.286
		l-0.186-0.518l-0.156-0.354l-2.523-4.485l-0.098-0.281l-0.049-0.639l0.107-3.048l0.185-1.559l0.137-0.292l0.176-0.29l1.566-1.896
		l0.732-1.19l0.117-0.289l0.029-0.355l-0.088-0.407l-0.332-0.649l-0.469-0.767l-0.156-0.551l-0.277-2.416l-0.059-1.358l0.049-0.302
		l0.091-0.268l0.137-0.26l0.186-0.225l0.254-0.186l0.254-0.122l0.791-0.211l0.566-0.225l0.254-0.163l0.02-0.402l-0.264-0.563
		l-1.523-1.634l-2.552-1.962l-0.332-0.305l-0.273-0.344l-0.234-0.429l-0.059-0.441l-0.01-0.317l0.312-1.084l5.442-0.128l1.37-0.206
		l1.562-0.423l2.142-0.909l0.264-0.19l0.215-0.233l1.309-1.885l0.332-0.342l0.423-0.356l0.781-0.548l0.449-0.222l0.391-0.117
		l1.152,0.076l3.226,0.634l0.772-0.004l0.423-0.134l0.303-0.224l0.42-0.575l0.576-0.383l4.31-1.853l0.83-0.55l11.048-4.918
		l0.527-0.169l0.547-0.039l2.207,0.3l4.879-0.594l0.615,0.078l0.166,0.253l0.039,0.253l-0.039,0.257l-0.127,0.263l-0.488,0.775
		l-0.078,0.272l-0.01,0.278l-0.078,0.265l-0.176,0.233l-1.263,0.442l-0.186,0.22l-0.088,0.253l0.02,0.278l0.117,0.263l0.186,0.263
		l0.254,0.274l0.609,0.484l0.596,0.334l1.113,0.35l2.904,0.346l1.377,0.329l17.428,8.224l0.352,0.249l0.283,0.258l0.176,0.233
		l0.13,0.219l0.068,0.169l0.83,3.523l0.185,0.402l0.381,0.602l0.479,0.561l2.669,2.454l0.81,0.553l0.762,0.405l0.42,0.285
		l0.335,0.297l0.166,0.262l0.137,0.271l0.147,0.512l0.039,0.252v0.52l-0.205,1.279l-0.342,1.219l-0.814,2.185l-0.107,0.54
		l-0.068,0.639l0.244,6.442l-0.068,0.925l-0.605,2.339l-0.039,0.29v0.29l0.088,0.3l0.205,0.284l16.578,13.749l0.586,0.334
		l0.449,0.199l0.469,0.033l1.79-0.334l0.537,0.029l0.283,0.183l0.117,0.311l-0.078,0.297l-0.156,0.316l-0.42,0.561l-0.547,0.56
		l-2.269,1.664l-0.977,0.492l-2.991,1.12l-1.24,0.748l-1.146,0.842l-1.103,1l-1.055,1.233l-4.072,7.665L504.585,420.179z"/>
	<path class="st0" d="M526.238,408.576l-0.768,0.736l-4.401,2.947l-16.484,7.92l0.026-0.05l4.072-7.665l1.055-1.233l1.103-1
		l1.146-0.842l1.24-0.748l2.991-1.12l0.977-0.492l2.269-1.664l0.547-0.56l0.42-0.561l0.156-0.316l0.078-0.297l-0.117-0.311
		l-0.283-0.183l-0.537-0.029l-1.79,0.334l-0.469-0.033l-0.449-0.199l-0.586-0.334l-16.578-13.749l-0.205-0.284l-0.088-0.3v-0.29
		l0.039-0.29l0.605-2.339l0.068-0.925l-0.244-6.442l0.068-0.639l0.107-0.54l0.814-2.185l0.342-1.219l0.205-1.279v-0.52l-0.039-0.252
		l-0.147-0.512l-0.137-0.271l-0.166-0.262l-0.335-0.297l-0.42-0.285l-0.762-0.405l-0.81-0.553l-2.669-2.454l-0.479-0.561
		l-0.381-0.602l-0.185-0.402l-0.83-3.523l-0.068-0.169l-0.13-0.219l-0.176-0.233l-0.283-0.258l-0.352-0.249l-17.428-8.224
		l-1.377-0.329l-2.904-0.346l-1.113-0.35l-0.596-0.334l-0.609-0.484l-0.254-0.274l-0.186-0.263l-0.117-0.263l-0.02-0.278
		l0.088-0.253l0.186-0.22l1.263-0.442l0.176-0.233l0.078-0.265l0.01-0.278l0.078-0.272l0.488-0.775l0.127-0.263l0.039-0.257
		l-0.039-0.253l-0.166-0.253l-0.615-0.078l-4.879,0.594l-2.207-0.3l-0.547,0.039l-0.527,0.169l-11.048,4.918l-0.83,0.55l-4.31,1.853
		l-0.576,0.383l-0.42,0.575l-0.303,0.224l-0.423,0.134l-0.772,0.004l-3.226-0.634l-1.152-0.076l-0.391,0.117l-0.449,0.222
		l-0.781,0.548l-0.423,0.356l-0.332,0.342l-1.309,1.885l-0.215,0.233l-0.264,0.19l-2.142,0.909l-1.562,0.423l-1.37,0.206
		l-5.442,0.128l0.889-2.081l0.166-0.538l0.088-0.558l-0.01-5.688l-0.039-0.274l-0.068-0.259l-0.312-0.313l-0.537-0.356l-1.24-0.426
		l-0.648-0.136l-0.488-0.035l-0.547,0.051l-0.605-0.035l-1.103-0.267l-1.331-0.486l-1.191-1.008l-3.655-3.875l1.143,0.029
		l1.654,0.23l0.576,0.021l0.586-0.07l2.659-0.843l1.152-0.21l3.46,0.3l1.084-0.021l0.527-0.146l1.878-0.828l4.661-1.03l0.693-0.257
		l7.246-6.041l2.021-0.889l4.183-1.233l0.371-0.25l0.423-0.46l1.348-2.729l3.499-5.57l0.244-0.615l0.459-0.693l3.929-4.854
		l1.341-1.005l0.185-0.134l1.83,0.422l4.353-0.651l4.768-1.355l4.003-2.193l1.199-0.328l1.471,2.677l-0.193,5.2l-1.852,1.6
		l-1.015,0.422l-0.779,1.024l-0.313,1.283l0.369,1.19l1.492,2.555l0.851,0.944l1.323,0.418l2.671-0.584l4.767-2.914l2.271-0.676
		l1.082-0.48l0.989-1.169l0.482-1.433l-0.41-1.301l-1.076-1.255l-0.169-0.649l1.871-1.502l0.738,0.517l0.8,0.135l0.682-0.32
		l0.405-0.85h0.425l1.01,0.677l2.655,1.234l1.102,0.72l0.836,1.049l2.179,3.39l0.215,0.726l0.317,3.782l-1.681,2.705l1.314,4.617
		l-0.549,2.179l1.829-0.562l1.246,1.326l1.246,1.672l1.461,0.813l1.507,0.353l3.229,1.662l1.553,0.561l-0.4,0.359l-0.184,0.092
		l-0.277,0.061l-6.182-2.018l-3.04-0.35l-0.743,2.367l0.61,0.901l1.02,0.84l0.984,1.076l0.431,1.627l0.59,0.748l1.384-0.006
		l2.763-0.509l2.676,0.588l5.316,1.982h2.804l1.03-0.735l-0.349-1.014l-1.066-0.898l-1.128-0.389l-0.718-0.496l-0.877-1.097
		l-0.979-1.024l5.7,4.082l3.491,1.654l0.425,0.101l0.034,0.009l0.059,3.375l-1.803,7.154l-0.156,1.155l-0.033,4.203l-1.126,5.087
		l0.456,7.771l-0.918,7.897l0.046,4.12l1.289,2.893l4.219,4.168l1.465,2.685l0.221,3.143l-1.12,2.33L526.238,408.576z
		 M492.562,301.474l1.23,0.765l1.266,0.586l1.097,0.691l0.743,1.064l-4.178,3.864l-1.051,0.499l-0.395,0.336l-0.287,0.629
		l-0.615,2.474h-0.395l0.2-2.003l0.195-0.629l-0.984,0.324l-0.794,2.392l-1.131,1.722l-1.059,1.183l-0.373,1.37l-1.054-1.074
		l-0.02-1.325l0.389-1.24l-1.129-1.729l-1.062-0.523l-1.005-0.897l-1.087-0.342l-1.17,1.193l-0.531,1.126l-1.165,0.267l-1.466-1.16
		l-0.401-1.15l-0.377-2.084l0.032-2l1.214-2.136l-0.763-3.11l0.034-2.352l2.327-0.877l5.121,1.112l2.742,0.176l2.025-1.288
		l1.876,2.291L492.562,301.474z"/>
	<path class="st0" d="M342.083,62.058l1.171-0.495l4.475-1.86l1.538-0.292h5.382l1.41-0.504l2.604-2.221l1.906-0.886l0.024,0.015
		l2.699,2.898l0.41,0.823l-0.215,0.167l-1.165,0.452l-0.166,0.045l-0.244,0.143l-0.215,0.236l-0.166,0.566l0.088,0.387l0.176,0.35
		l2.386,2.749l1.191,1.962l0.244,0.655l0.059,0.511l-0.176,0.295l-0.244,0.281l-2.327,1.938l-0.244,0.274l-0.166,0.285l-0.127,0.358
		l-0.068,0.417l-0.029,0.709l-0.098,0.451l-0.117,0.386l-0.166,0.321l-0.147,0.35l-0.137,0.455l0.098,0.329l0.225,0.313l0.312,0.244
		l0.342,0.209l0.332,0.132l3.607,0.597l0.267,0.126l0.674,0.419l0.605,0.483l0.342,0.402l0.107,0.357l0.029,0.357l-0.4,3.947
		l0.117,1.453l0.186,0.544l0.244,0.452l0.488,0.623l2.113,5.693l0.371,1.422l0.078,0.906l-0.205,0.29l-0.996,1.124l-0.413,0.577
		l-0.137,0.28l-0.107,0.296l-0.107,0.729l-0.059,2.263l-0.049,0.267l-0.117,0.283l-0.225,0.277l-0.312,0.225l-1.182,0.672
		l-1.016-0.285l-1.048-0.103l-1.201,0.225l-2.679,1.034l-5.482,1.867l-15.045,0.775l-0.566,0.109l-2.396,0.892l-5.677,2.935
		l-1.27,0.075l-3.932-0.348l-1.026,0.114l0.17-1.08l0.098-3.231l-0.124-1.501l-0.534-1.44l-0.97-0.595l-1.191-0.332l-1.217-0.631
		l-5.469-0.716l-2.578-1.061l0.002-0.049l0.128-2.652l1.484-1.815l1.816-1.159l4.069-1.54l7.623-4.647l1.413-1.57l1.439-2.752
		l0.54-2.761l-1.27-1.604l-2.2-1.162l0.404-1.252l1.947-0.967l2.435-0.297l2.357,0.163l2.168-0.451l4.368-1.765l1.126-0.809
		l0.052-0.956l-2.161-3.324l-0.215-0.808l0.052-0.951L342.083,62.058z"/>
	<path class="st0" d="M285.756,334.078l1.052-0.665l12.167-6.028l38.794-31.403l3.441-4.294l5.075-9.144l10.83-0.996l2.227-0.985
		l0.56-0.106h0.449l2.431,0.641l3.939,0.415l0.413-0.022l0.195-0.079l0.225-0.13l0.225-0.228l0.185-0.275l0.127-0.33l0.049-0.283
		l0.029-1.673l0.068-0.547l0.078-0.283l0.117-0.283l0.166-0.299l0.215-0.277l0.264-0.264l1.4-0.702l2.48-0.948l0.557-0.116
		l1.117,0.37l0.977,0.081l8.385-1.344l0.391,1.297l0.618,0.97l1.084,1.168l0.332,0.299l2.894,1.758l0.264,0.35l0.078,0.309
		l-0.117,0.269l-0.176,0.256l-1.113,1.116l-2.376,1.737l-1.152,1.026l-0.244,0.263l-0.198,0.255l-0.293,0.509l-0.156,0.522
		l-0.371,3.085l0.068,3.246l0.508,3.39l0.775,2.828l1.016,2.726l1.67,3.606l3.314,5.791l0.205,0.274l0.244,0.227l0.257,0.174
		l2.803,1.172l0.635,0.358l0.55,0.434l0.244,0.276l0.391,0.595l0.859,1.629l0.205,0.264l0.244,0.258l0.273,0.215l0.293,0.149
		l0.293,0.067l0.306,0.025l0.85-0.174l0.283-0.02l0.264,0.066l0.322,0.18l3.001,3.174l0.537,0.801l0.234,0.469l0.088,0.396
		l-0.039,0.297l-0.137,0.586l-0.42,1.096l-0.137,0.289l-1.497,2.357l-0.137,0.363l-0.098,0.451l-0.019,0.683l0.127,0.449
		l0.215,0.402l4.958,4.611l0.869,1.191l2.503,4.753l0.859,1.153l2.542,2.744l3.655,3.875l1.191,1.008l1.331,0.486l1.103,0.267
		l0.605,0.035l0.547-0.051l0.488,0.035l0.648,0.136l1.24,0.426l0.537,0.356l0.312,0.313l0.068,0.259l0.039,0.274l0.01,5.688
		l-0.088,0.558l-0.166,0.538l-0.889,2.081l-0.312,1.084l0.01,0.317l0.059,0.441l0.234,0.429l0.273,0.344l0.332,0.305l2.552,1.962
		l1.523,1.634l0.264,0.563l-0.02,0.402l-0.254,0.163l-0.566,0.225l-0.791,0.211l-0.254,0.122l-0.254,0.186l-0.186,0.225l-0.137,0.26
		l-0.091,0.268l-0.049,0.302l0.059,1.358l0.277,2.416l0.156,0.551l0.469,0.767l0.332,0.649l0.088,0.407l-0.029,0.355l-0.117,0.289
		l-0.732,1.19l-1.566,1.896l-0.176,0.29l-0.137,0.292l-0.185,1.559l-0.107,3.048l0.049,0.639l0.098,0.281l2.523,4.485l0.156,0.354
		l0.186,0.518l-0.166,0.286l-0.244,0.145l-0.293,0.027l-0.283-0.015l-0.326-0.072l-0.693-0.277l-1.562-0.914l-6.803-5.488
		l-1.995-2.512l-0.264-0.255l-0.557-0.438l-0.517-0.316l-1.152-0.42l-0.97-0.215l-0.771-0.056l-2.031,0.168l-1.663,0.376
		l-1.533,0.527l-1.302,0.813l-2.568,2.195l-0.667,0.391l-1.582,0.728l-73.893,15.275l-1.164,0.361l-0.086-0.095l-0.736-2.464
		l-0.605-7.723l-0.853-10.523l-0.853-2.396l-6.393-10.012l-5.957-9.351l-1.406-0.865l-1.315,0.297l-1.322-0.091l-1.289-0.4
		l-1.224-0.635l-6.979-5.064l-2.298-0.784l-3.021-0.284l-2.318-0.704l-1.621-1.788l-0.964-3.521L285.756,334.078z"/>
	<path class="st0" d="M285.756,334.078l-0.003-0.314l-0.951-2.962l-4.824-8.45l-4.004-7.018l-0.54-1.93l-0.645-3.937l-1.81-3.532
		l-0.436-1.298l-0.859-4.173l-0.319-2.95l1.309-7.62l0.195-5.603l0.866-2.057l1.372-1.425l2.541-2.641l1.543-2.057l1.725-1.798
		l2.448-1.234l4.004-0.646l1.191-0.638l0.788-0.957l0.566-1.238l2.37-9.023l1.237-2.681l2.461-1.796l5.462-2.408l2.63-1.892
		l5.983-2.749l0.531-0.475l0.267,0.266l0.488,1.424l0.029,0.737l-1.025,3.974l-0.01,0.59l0.137,0.446l2.207,2.182l0.254,0.327
		l0.303,0.578l-0.039,0.343l-0.186,0.247l-0.303,0.142l-3.021,0.39l-0.293,0.077l-0.283,0.118l-0.293,0.248l-2.23,2.768
		l-0.342,0.532l-0.381,0.806l0.029,0.418l0.185,0.323l4.616,3.077l1.172,1.087l0.537,0.599l0.938,1.359l0.765,1.36l0.508,0.756
		l0.283,0.262l0.293,0.193l0.283,0.102l2.337,0.216l4.739,1.645l0.381,0.214l1.064,0.83l0.833,0.861l0.264,0.391l0.156,0.37
		l0.254,1.07l0.566,1.783l0.303,0.495l0.293,0.273l13.811-0.833l2.386,0.206l3.421,0.713l-5.075,9.144l-3.441,4.294l-38.794,31.403
		l-12.167,6.028L285.756,334.078z"/>
	<path class="st0" d="M310.586,248.576l2.594-2.323l1.484-0.905l0.501-0.514l0.273-0.526l0.443-1.333l0.397-0.625l2.266-1.432
		l0.482-0.859l-1.628-2.568l0.176-1.192l0.742-1.144l2.025-2.15l0.086-0.119l0.777,0.072l2.324,0.285l0.902,0.436l0.771,0.685
		l1.26,0.695l6.881,2.277l0.879,0.643l4.372,2.503l0.879,0.342l0.537,0.02l0.215-0.566l0.361-1.403l0.098-0.251l0.147-0.261
		l0.537-0.503l0.645-0.418l6.442-3.241l0.547-0.18l2.835-0.418l1.204-0.448l1.855-0.986l10.185,4.057l6.061,0.054l6.5,1.221
		l3.87,2.068l0.488,0.188l0.4,0.085l0.264-0.038l0.537-0.2l0.889-0.469l0.423-0.16l0.596-0.095l0.303,0.137l0.176,0.236l0.01,0.305
		l-0.059,0.32l-1.497,3.865l-0.127,0.573l-0.039,0.298l-0.01,0.318l0.029,0.403l0.127,0.613l0.371,0.996l0.247,0.458l0.703,0.952
		l1.318,1.424l1.693,1.448l0.586,0.409l0.459,0.261l3.968,1.475l0.508,0.328l0.537,0.604l0.931,1.476l0.361,0.444l0.517,0.515
		l1.641,1.292l0.439,0.272l2.962,1.438l0.723,0.493l0.443,0.434l0.088,0.288l0.059,0.284l-0.273,9.017l-1.126,0.569l-1.152,0.392
		l-2.611,1.433l-0.478,0.071l-0.645,0.012l-7.116-0.882l-1.312,0.325l-3.87,1.702l-8.385,1.344l-0.977-0.081l-1.117-0.37
		l-0.557,0.116l-2.48,0.948l-1.4,0.702l-0.264,0.264l-0.215,0.277l-0.166,0.299l-0.117,0.283l-0.078,0.283l-0.068,0.547
		l-0.029,1.673l-0.049,0.283l-0.127,0.33l-0.185,0.275l-0.225,0.228l-0.225,0.13l-0.195,0.079l-0.413,0.022l-3.939-0.415
		l-2.431-0.641h-0.449l-0.56,0.106l-2.227,0.985l-10.83,0.996l-3.421-0.713l-2.386-0.206l-13.811,0.833l-0.293-0.273l-0.303-0.495
		l-0.566-1.783l-0.254-1.07l-0.156-0.37l-0.264-0.391l-0.833-0.861l-1.064-0.83l-0.381-0.214l-4.739-1.645l-2.337-0.216
		l-0.283-0.102l-0.293-0.193l-0.283-0.262l-0.508-0.756l-0.765-1.36l-0.938-1.359l-0.537-0.599l-1.172-1.087l-4.616-3.077
		l-0.185-0.323l-0.029-0.418l0.381-0.806l0.342-0.532l2.23-2.768l0.293-0.248l0.283-0.118l0.293-0.077l3.021-0.39l0.303-0.142
		l0.186-0.247l0.039-0.343l-0.303-0.578l-0.254-0.327l-2.207-2.182l-0.137-0.446l0.01-0.59l1.025-3.974l-0.029-0.737l-0.488-1.424
		L310.586,248.576z"/>
	<path class="st0" d="M320.427,232.885l0.494-0.689l0.176-1.042l-1.172-7.739l-0.117-2.857l0.638-2.973l1.504-4.103l1.107-5.665
		l0.833-2.725l2.975-3.299l3.808-5.87l0.625-1.514l-2.168-1.694l-2.624-0.821l-2.383-1.168l-1.452-2.748l-0.404-3.165l0.13-2.823
		l0.684-2.696l2.259-5.484l0.02-2.288l-0.618-6.465l1.142-0.177l1.875-0.174l0.814-0.34l1.084-1.009l2.24-1.707l0.742-0.413
		l0.547-0.22l0.557,0.032l0.303,0.058l0.303,0.106l2.747,1.474l0.723,0.208l2.913,0.202l1.341-0.178l0.195-0.208l0.322-0.531
		l0.166-0.531l0.176-1.022l0.264-3.174l0.137-0.656l0.205-0.72l0.254-0.642l0.146-0.271l0.391-0.457l0.605-0.584l1.429-1.133
		l0.684-0.407l0.518-0.197l0.615,0.05l5.143,1.454l10.83,4.604l3.109,0.204l3.89,5.577l1.191,1.366l0.264,0.088l0.274,0.028
		l0.293-0.024l0.283-0.068l0.843-0.35l0.293-0.078l0.273-0.032l0.264,0.026l2.484,1.147l0.605,0.404l0.381,0.368l0.752,1.781
		l0.469,0.756l0.352,0.338l0.361,0.194l1.585,0.296l1.289,0.628l2.279,1.4l0.518,0.404l0.488,0.532l0.361,0.546l0.42,0.864
		l0.166,0.526l0.078,0.536l-0.146,1.343l-0.244,1.099l-0.244,0.475l-0.342,0.499l-0.713,0.799l-0.85,0.801l-2.181,1.292
		l-0.625,0.475l-0.547,0.565l-0.264,0.405l-0.234,0.509l-0.716,2.121l-0.215,0.363l-0.312,0.413l-0.977,0.856l-0.635,0.391
		l-0.322,0.395l-0.361,0.555l-0.98,2.433l-0.303,1.18l-0.049,0.295l-0.01,0.283l0.01,0.299l0.049,0.263l0.078,0.251l0.088,0.157
		l0.195,0.221l0.521,0.371l0.225,0.12l4.73,1.486l0.674,0.355l0.273,0.209l0.215,0.269l0.176,0.311l0.098,0.323l0.059,0.331
		l-0.029,0.836l-0.547,3.237l-0.029,0.931l0.078,1.349l0.127,0.792l0.273,0.78l0.527,1.199l0.068,0.241l0.029,0.163l0.01,0.231
		l-0.02,0.267l-0.049,0.266l-0.078,0.27l-0.273,0.346l-0.469,0.441l-1.631,0.922l-3.177,1.004l-2.464,1.294l-0.127,0.026
		l-0.215,0.024l-0.518-0.074l-1.064-0.3l-0.361,0.141l-0.374,0.342l-0.605,0.862l-0.469,0.91l-0.107,0.274l-0.498,1.098
		l-0.391,0.622l-2.064,2.319l-0.391,0.615l-0.185,0.47l0.068,0.315l0.137,0.296l0.185,0.286l0.234,0.272l0.254,0.234l0.882,0.488
		l0.225,0.23l0.098,0.25l-0.566,0.508l-15.435,8.928l-1.855,0.986l-1.204,0.448L349,234.021l-0.547,0.18l-6.442,3.241l-0.645,0.418
		l-0.537,0.503l-0.147,0.261l-0.098,0.251l-0.361,1.403l-0.215,0.566l-0.537-0.02l-0.879-0.342l-4.372-2.503l-0.879-0.643
		l-6.881-2.277l-1.26-0.695l-0.771-0.685l-0.902-0.436l-2.324-0.285L320.427,232.885z"/>
	<path class="st0" d="M324.743,165.057l-0.228-2.386l-1.074-2.536l-3.079-5.076l-0.749-2.716l-0.273-3.295l0.365-6.186l1.335-4.866
		l0.253-0.924l0.202-4.29l1.328-5.735l0.71-1.293l0.573-1.475l-0.163-1.407l-0.469-1.448l-0.299-1.549l0.299-3.224l2.982-8.385
		l0.064-0.407l1.026-0.114l3.932,0.348l1.27-0.075l5.677-2.935l2.396-0.892l0.566-0.109l15.045-0.775l5.482-1.867l2.923,4.473
		l0.771,1.617l0.078,0.341l0.029,0.594l-0.088,0.608l-0.098,0.295l-0.303,0.598l-0.215,0.301l-0.186,0.438l-0.137,0.535
		l-0.049,1.028l0.068,0.549l0.127,0.454l0.645,1.082l1.634,1.992l1.23,2.042l0.264,0.601l0.166,0.488l0.078,0.641l0.01,1.121
		l-0.137,1.619l0.02,0.566l0.117,1.046l0.205,0.55l0.244,0.411l0.85,0.588l3.864,1.986l0.469,0.451l0.547,0.671l0.986,1.573
		l0.361,0.797l0.195,0.624l-0.068,1.383l-0.342,2.111l-0.439,1.72l-0.342,0.875l-0.352,0.579l-1.507,1.657l-0.908,1.391
		l-0.244,0.575l-0.205,1.159l-0.166,0.665l-0.234,0.639l-0.166,0.325l-0.205,0.303l-2.24,1.894l-0.225,0.253l-0.205,0.371
		l-0.088,0.229l-0.078,0.291l-0.078,0.654v3.058l-0.264,2.894l-0.098,0.572l-0.869,2.975l-3.109-0.204l-10.83-4.604l-5.143-1.454
		l-0.615-0.05l-0.518,0.197l-0.684,0.407l-1.429,1.133l-0.605,0.584l-0.391,0.457l-0.146,0.271l-0.254,0.642l-0.205,0.72
		l-0.137,0.656l-0.264,3.174l-0.176,1.022l-0.166,0.531l-0.322,0.531l-0.195,0.208l-1.341,0.178l-2.913-0.202l-0.723-0.208
		l-2.747-1.474l-0.303-0.106l-0.303-0.058l-0.557-0.032l-0.547,0.22l-0.742,0.413l-2.24,1.707l-1.084,1.009l-0.814,0.34
		l-1.875,0.174L324.743,165.057z"/>
	<path class="st0" d="M430.746,276.294l-0.307,0.185l0.595,1.313l0.236,1.514l-0.01,3.192l0.205,1.386l0.923,2.951l0.2,1.398
		l0.6,2.479l1.415,2.828l5.782,8.346l0.605,0.62l0.892,0.478l9.032,9.012l2.358,1.42l4.936,2.168l0.892,0.206l-0.185,0.134
		l-1.341,1.005l-3.929,4.854l-0.459,0.693l-0.244,0.615l-3.499,5.57l-1.348,2.729l-0.423,0.46l-0.371,0.25l-4.183,1.233
		l-2.021,0.889l-7.246,6.041l-0.693,0.257l-4.661,1.03l-1.878,0.828l-0.527,0.146l-1.084,0.021l-3.46-0.3l-1.152,0.21l-2.659,0.843
		l-0.586,0.07l-0.576-0.021l-1.654-0.23l-1.143-0.029l-2.542-2.744l-0.859-1.153l-2.503-4.753l-0.869-1.191l-4.958-4.611
		l-0.215-0.402l-0.127-0.449l0.019-0.683l0.098-0.451l0.137-0.363l1.497-2.357l0.137-0.289l0.42-1.096l0.137-0.586l0.039-0.297
		l-0.088-0.396l-0.234-0.469l-0.537-0.801l-3.001-3.174l-0.322-0.18l-0.264-0.066l-0.283,0.02l-0.85,0.174l-0.306-0.025
		l-0.293-0.067l-0.293-0.149l-0.273-0.215l-0.244-0.258l-0.205-0.264l-0.859-1.629l-0.391-0.595l-0.244-0.276l-0.55-0.434
		l-0.635-0.358l-2.803-1.172l-0.257-0.174l-0.244-0.227l-0.205-0.274l-3.314-5.791l-1.67-3.606l-1.016-2.726l-0.775-2.828
		l-0.508-3.39l-0.068-3.246l0.371-3.085l0.156-0.522l0.293-0.509l0.198-0.255l0.244-0.263l1.152-1.026l2.376-1.737l1.113-1.116
		l0.176-0.256l0.117-0.269l-0.078-0.309l-0.264-0.35l-2.894-1.758l-0.332-0.299l-1.084-1.168l-0.618-0.97l-0.391-1.297l3.87-1.702
		l1.312-0.325l7.116,0.882l0.645-0.012l0.478-0.071l2.611-1.433l1.152-0.392l1.126-0.569l1.885-1.589l0.82-0.526l2.523-0.847
		l0.654-0.102l0.498-0.01l0.599,0.258l1.25,0.804l0.596,0.5l0.244,0.26l0.186,0.278l0.303,0.601l0.215,0.654l0.755,1.193
		l0.547,0.527l0.596,0.323l1.064,0.38l0.762,0.156l0.283,0.024l1.39-0.102l1.103-0.268l0.557-0.063l1.048,0.02l0.576,0.185
		l0.449,0.276l0.498,0.634l0.781,1.224l0.98,0.934l1.162,0.856l1.113,0.59l1.429,0.214l0.508-0.012l0.332-0.104l0.244-0.214
		l0.108-0.246l0.039-0.279l-0.02-0.889l0.029-0.358l0.107-0.307l0.273-0.291l0.234-0.031l0.166,0.024l0.215,0.134L430.746,276.294z"
		/>
	<path class="st0" d="M494.1,205.88l0.414,2.181l-0.274,2.332l-2.125,2.675l-2.425,1.221l-1.777,2.007l0.46,1.791l-0.531,1.598
		l-0.011,3.052l-2.572,1.881l-0.554,0.6l-0.4,0.34l-0.256,0.456l0.697,1.523l0.256,1.048l-2.301,1.071l-1.488,1.113l-2.03,2.252
		l-0.981,1.997l-1.227,1.132l-0.584,1.365l-1.097,1.234l-1.015,0.673l-4.214,1.383l-0.569,0.355l-0.241,0.533l-0.097,0.797
		l-0.308,0.94l-0.477,0.785l-0.109,1.504l-0.438,0.858l-0.109,1.357l-0.971,0.92l-1.401,0.702l-5.882,0.882l-2.148,1.194
		l-3.349,5.595l-3.043,0.801l-0.625-0.05l-0.579-0.273l-0.707-0.068l-0.754,0.283l-0.384,0.391l-0.251,0.469l-1.348,1.805
		l-0.59,0.531l-0.82,0.214l-2.988,1.326l-1.266,1.003l-2.517,1.006l-1.547,1.644l-0.78,2.371l-2.252,4.557l-1.339,2.171l-0.88,0.311
		l-0.538,0.564l-0.011,0.007l-1.343-1.23l-0.215-0.134l-0.166-0.024l-0.234,0.031l-0.273,0.291l-0.107,0.307l-0.029,0.358
		l0.02,0.889l-0.039,0.279l-0.108,0.246l-0.244,0.214l-0.332,0.104l-0.508,0.012l-1.429-0.214l-1.113-0.59l-1.162-0.856l-0.98-0.934
		l-0.781-1.224l-0.498-0.634l-0.449-0.276l-0.576-0.185l-1.048-0.02l-0.557,0.063l-1.103,0.268l-1.39,0.102l-0.283-0.024
		l-0.762-0.156l-1.064-0.38l-0.596-0.323l-0.547-0.527l-0.755-1.193l1.234,0.632l0.518,0.191l0.254,0.043h0.254l0.264-0.051
		l0.264-0.112l0.215-0.295l0.107-0.441l-0.059-0.807l-0.088-0.49l-0.117-0.422l-0.439-1.052l-0.342-0.595l-0.42-0.575l-1.048-0.914
		l-0.225-0.244l-0.127-0.274l0.078-0.355l0.234-0.428l0.589-0.725l0.791-0.735l1.758-0.96l3.763-1.29l1.253-0.655l0.576-0.414
		l2.357-2.079l0.41-0.28l0.508-0.247l0.283-0.077l0.586-0.069l1.419,0.038l0.293-0.051l0.312-0.122l0.273-0.229l0.947-1.097
		l0.566-0.478l3.011-1.567l0.264-0.213l0.234-0.253l0.195-0.265l0.176-0.363l0.185-0.484l0.332-1.311l0.218-1.365l-0.02-0.32
		l-0.062-0.312l-0.303-0.393l-0.273-0.231l-5.101-2.573l-1.357-0.383l-6.823-0.824l-0.215-0.093l-0.169-0.186l-0.117-0.241
		l-0.107-0.269l-0.361-1.547v-0.779l0.156-1.072l0.186-0.647l0.433-1.142l1.426-3.036l7.233-11.978l4.905-11.079l0.498-0.954
		l1.185-1.857l3.294-3.83l2.49-2.228l1.341-0.856l0.781-0.314l1.566-0.159l7.252,1.254l0.517,0.163l0.312,0.167l1.768,1.262
		l0.518,0.271l0.365,0.048l0.488-0.02l0.879-0.229l6.989-3.331l1.24-0.894l1.068-1.027l0.215-0.287l0.127-0.247l0.068-0.185
		l0.029-0.169l-0.049-0.518l0.01-0.287l0.049-0.295l0.127-0.259l0.186-0.235l1.172-0.693l0.283-0.235l0.176-0.257l0.127-0.277
		l0.147-0.516l0.137-0.245l0.166-0.203l0.254-0.106l0.267-0.046l5.609,1.65l0.801,0.056l0.628-0.373l0.293-0.249l0.283-0.279
		l0.244-0.289l0.4-0.612l0.986-2.129l0.283-0.064l0.4,0.195l0.755,0.937l0.391,0.674l0.234,0.47l0.469,2.733l0.234,0.866
		l0.859,2.332l0.332,0.645l0.352,0.311l0.482,0.235l0.889,0.064l0.498-0.133l0.361-0.217l0.801-1.107l0.234-0.249l0.342-0.022
		l0.443,0.211l0.713,0.818l0.674,0.926l1.748,3.021l0.902,0.539l2.969,0.563L494.1,205.88z M490.84,239.368l0.612-0.484l0.839-0.672
		l7.192,0.062l0.599,0.878l-0.942,0.959l-2.531,1.992l-1.21-0.256l-1.253-0.628l-2.086-1.026L490.84,239.368z M509.842,230.426
		l0.57,0.231l0.358,0.574l1.529,1.579l-0.489,1.042l-6.134,2.603l-3.185,1.948l-1.156,0.459l-0.532-1.312l0.872-1.031l1.041-0.995
		l1.131-1.664l0.156-1.061l-0.055-0.488l0.049-0.705l0.499-0.29l0.137,0.736l0.949,0.626l1.507-0.278l0.138-1.718l-0.428-0.886
		l0.488-1.044l0.748-0.688l0.513-0.827l0.567-0.833l1.039,0.611l1.809,0.282l0.295,0.682l-1.643,0.584l-0.231,0.456l-0.39,0.49
		L509.842,230.426z"/>
	<path class="st0" d="M493.977,169.588l0.062,0.6l0.569,1.657l0.964,1.181l2.886,0.906l-1.724,1.551l-0.442,2.085l-0.324,1.935
		l0.245,3.362l-0.77,1.579l0.318,2.81l1.49,2.406l2.232,2.812l1.307,1.017l1.576,0.744l0.862,0.445l-0.102,1.502l-1.752,0.061
		l-1.246,0.953l-1.213,2.44l-1.852,1.564l-0.887,1.727l-0.872,1.861l-1.204,1.094l-0.09-0.004l-2.969-0.563l-0.902-0.539
		l-1.748-3.021l-0.674-0.926l-0.713-0.818l-0.443-0.211l-0.342,0.022l-0.234,0.249l-0.801,1.107l-0.361,0.217l-0.498,0.133
		l-0.889-0.064l-0.482-0.235l-0.352-0.311l-0.332-0.645l-0.859-2.332l-0.234-0.866l-0.469-2.733l-0.234-0.47l-0.391-0.674
		l-0.755-0.937l-0.4-0.195l-0.283,0.064l-0.986,2.129l-0.4,0.612l-0.244,0.289l-0.283,0.279l-0.293,0.249l-0.628,0.373l-0.801-0.056
		l-5.609-1.65l-0.267,0.046l-0.254,0.106l-0.166,0.203l-0.137,0.245l-0.147,0.516l-0.127,0.277l-0.176,0.257l-0.283,0.235
		l-1.172,0.693l-0.186,0.235l-0.127,0.259l-0.049,0.295l-0.01,0.287l0.049,0.518l-0.029,0.169l-0.068,0.185l-0.127,0.247
		l-0.215,0.287l-1.068,1.027l-1.24,0.894l-6.989,3.331l-0.879,0.229l-0.488,0.02l-0.365-0.048l-0.518-0.271l-1.768-1.262
		l-0.312-0.167l-0.517-0.163l-7.252-1.254l0.108-2.954l-0.078-1.004l-0.101-0.297l-0.244-0.576l-1.504-2.195l-0.283-0.55
		l-0.166-0.514l-0.039-0.247l-0.01-0.156v-0.729l0.195-2.133l-0.02-0.774l-0.156-1.257l-0.137-0.567l-0.195-0.515l-0.508-1.065
		l-0.225-0.587l-0.068-0.283l0.107-0.607l0.264-0.886l1.943-4.84l0.713-1.167l1.312-1.641l0.283-0.55l0.039-0.576l-0.049-0.588
		l-0.937-2.561l-0.039-0.302l0.078-0.362l0.176-0.382l0.41-0.584l1.211-0.824l2.767-0.919l-0.459,1.835l-0.078,0.634l0.02,0.408
		l0.088,0.394l0.156,0.366l0.225,0.3l0.254,0.264l1.484,1.134l0.745,0.908l0.342,0.174l0.449,0.102l1.992-0.468l0.579,0.032
		l2.217,0.644l0.361,0.168l0.303,0.222l0.234,0.294l0.176,0.34l0.127,0.4l0.101,1.435l0.098,0.422l0.215,0.31l0.293,0.24
		l3.655,1.628l0.381,0.084l0.381-0.046l0.352-0.144l0.312-0.355l0.293-0.465l0.322-0.881l0.195-0.415l0.264-0.388l1.546-0.827
		l0.273-0.432l0.137-0.27l0.576-2.299l7.321,2.432l4.31,0.853l2.366,0.11l0.635-0.064l0.439-0.12l0.166-0.228l0.531-1.229
		l0.703-1.107l0.517-0.626l0.996-0.956l1.37-1.018l1.426-0.818l5.211-1.94L493.977,169.588z"/>
	<path class="st0" d="M473.657,152.008l0.149,0.142l1.22,0.663l1.925,0.743l3.786-1.34l0.636,0.152l0.584,0.351l1.155,1.08
		l-0.698,1.033l-0.367,1.54l0.32,1.573l0.728,1.111l2.542,1.224l5.688,2.239l2.53-0.292l1.828,1.564l0.883,1.802l-2.389,0.945
		l-0.323,1.8l0.123,1.25l-0.013,0.005l-5.211,1.94l-1.426,0.818l-1.37,1.018l-0.996,0.956l-0.517,0.626l-0.703,1.107l-0.531,1.229
		l-0.166,0.228l-0.439,0.12l-0.635,0.064l-2.366-0.11l-4.31-0.853l-7.321-2.432l-0.566-0.55l-1.494-0.58l-0.384-0.052l-0.332,0.108
		l-0.254,0.184l-0.166,0.26l-0.088,0.18l-0.215,0.724l-0.146,0.29l-0.342,0.582l-0.41,0.25l-0.488,0.098l-1.302-0.156l-0.244-0.064
		l-0.303-0.124l-0.273-0.196l-0.254-0.244l-0.185-0.272l-0.166-0.33l-0.029-0.102v-0.492l0.088-0.852l0.156-0.392l0.273-0.236
		l2.005-0.892l0.557-0.394l0.234-0.3l0.156-0.364l-0.02-0.538l-0.166-0.364l-0.596-0.848l0.01-0.324l0.176-0.322l0.537-0.422
		l0.371-0.192l0.342-0.12l1.409-0.312l2.246-0.793l1.016-0.629l0.511-0.428l0.312-0.563l0.264-0.819l0.391-2.544l0.02-0.561
		l-0.225-2.413l-0.02-1.443l0.029-0.345l0.605-1.147l2.493-3.049L473.657,152.008z"/>
	<path class="st0" d="M463.455,108.312l-0.648,1.006l-0.897,2.98l-0.868,3.226l-0.743,3.21l-0.152,4.015l-0.136,4.137l0.304,2.585
		l0.81,2.648l0.47,1.406l0.308,0.494l0.277,0.76l0.359,1.72l0.236,0.71l1.384,2.112l1.005,1.156l0.871,0.497l0.754,0.76l1.656,5.128
		l0.851,1.031l4.362,4.115l-0.151,0.202l-2.493,3.049l-0.605,1.147l-0.029,0.345l0.02,1.443l0.225,2.413l-0.02,0.561l-0.391,2.544
		l-0.264,0.819l-0.312,0.563l-0.511,0.428l-1.016,0.629l-2.246,0.793l-1.409,0.312l-0.342,0.12l-0.371,0.192l-0.537,0.422
		l-0.176,0.322l-0.01,0.324l0.596,0.848l0.166,0.364l0.02,0.538l-0.156,0.364l-0.234,0.3l-0.557,0.394l-2.005,0.892l-0.273,0.236
		l-0.156,0.392l-0.088,0.852v0.492l0.029,0.102l0.166,0.33l0.185,0.272l0.254,0.244l0.273,0.196l0.303,0.124l0.244,0.064
		l1.302,0.156l0.488-0.098l0.41-0.25l0.342-0.582l0.146-0.29l0.215-0.724l0.088-0.18l0.166-0.26l0.254-0.184l0.332-0.108
		l0.384,0.052l1.494,0.58l0.566,0.55l-0.576,2.299l-0.137,0.27l-0.273,0.432l-1.546,0.827l-0.264,0.388l-0.195,0.415l-0.322,0.881
		l-0.293,0.465l-0.312,0.355l-0.352,0.144l-0.381,0.046l-0.381-0.084l-3.655-1.628l-0.293-0.24l-0.215-0.31l-0.098-0.422
		l-0.101-1.435l-0.127-0.4l-0.176-0.34l-0.234-0.294l-0.303-0.222l-0.361-0.168l-2.217-0.644l-0.579-0.032l-1.992,0.468
		l-0.449-0.102l-0.342-0.174l-0.745-0.908l-1.484-1.134l-0.254-0.264l-0.225-0.3l-0.156-0.366l-0.088-0.394l-0.02-0.408l0.078-0.634
		l0.459-1.835l-0.772-2.532l-0.488-0.985l-0.609-0.869l-7.155-14.505l-0.176-0.552l-0.01-0.319l0.098-0.291l0.332-0.602l2.972-3.768
		l0.674-1.077l0.127-0.265l0.423-1.198l0.732-2.855l0.576-3.584l-0.078-0.523l-0.205-0.579l-0.557-1.077l-0.371-0.525l-0.332-0.346
		l-3.48-1.848l-0.02-1.152l2.07-3.832l1.673-0.713l0.596-0.341l0.547-0.411l0.225-0.256l0.273-0.476l0.254-0.653l0.322-1.29
		l0.088-0.657v-0.516l-0.303-0.964l0.02-0.311l0.156-0.299l0.43-0.278l0.342-0.137l4.528-0.944l0.244-0.274l0.107-0.45l-0.195-0.827
		l-0.293-0.49l-0.303-0.372l-0.156-0.287l0.039-0.307l0.361-0.4l0.859-0.666l0.244-1.309l-0.039-4.485l2.063-0.363l1.827-0.322
		l1.27,0.279l0.404,0.313l0.654,0.344l0.41-0.01l0.43-0.198l0.459-0.293l0.84-0.392l0.469-0.101l0.374,0.016l0.205,0.146
		l0.127,0.137l0.117,0.17l0.343,0.73L463.455,108.312z"/>
	<path class="st0" d="M456.361,78.581l1.275,0.056l3.196-1.636l1.952-0.483l1.23-1.276l0.492-2.194l0.412-1.81l0.901-3.172
		l1.138-1.019l1.333-0.279l2.927,0.221l2.65-0.516l2.444-0.974l3.133-2.254l1.938-2.046l0.574-0.279l0.241-0.731l0.2-0.398
		l3.619-2.978l0.523-0.639l0.164-0.876l-0.236-0.549l-0.113-0.511l0.579-0.803l1.358-0.649l3.178-0.334l2.43-1.857l1.302-0.212
		l1.112,0.566l0.584,1.407l-0.087,0.678l-0.651,0.941l-0.159,0.832l0.144,0.876l0.615,1.13l0.138,0.709l0.231,0.549l1.092,1.63
		l0.405,0.786l0.149,0.773l0.108,1.687l0.169,0.769l0.292,0.619l0.431,0.708l0.451,0.58l0.333,0.24l0.369,0.433l0.753,1.194
		l-0.358,1.298l-0.868,1.23l-2.522,1.041l-3.439,2.904l-1.864,3.476l-2.685,3.944l-4.435,8.274l-3.393,8.519l-1.621,2.187
		l-5.214,1.357l-6.092,3.465l-2.197-0.614l-2.182,1.633l-1.357,2.106l-0.328-0.698l-0.343-0.73l-0.117-0.17l-0.127-0.137
		l-0.205-0.146l-0.374-0.016l-0.469,0.101l-0.84,0.392l-0.459,0.293l-0.43,0.198l-0.41,0.01l-0.654-0.344l-0.404-0.313l-1.27-0.279
		l-1.827,0.322l-2.063,0.363l-0.391-0.057l-0.205-0.083l-0.283-0.164l-0.244-0.236l-0.205-0.291l-0.156-0.305l-0.169-1.593
		l0.12-5.535l1.143-6.922l-0.234-1.87l-0.146-0.578l0.127-0.766l2.393-4.794l1.39-4.967L456.361,78.581z"/>
	<path class="st0" d="M446.102,73.716l0.197-0.19l0.953-1.748l1.353,3.015l1.666,2.278l2.22,1.382l3.004,0.352l0.866-0.224
		l-0.087,0.418l-1.39,4.967l-2.393,4.794l-0.127,0.766l0.146,0.578l0.234,1.87l-1.143,6.922l-1.458,0.158l-0.576,0.134l-0.596,0.235
		l-2.337,1.368l-0.264,0.216l-0.352,0.03l-0.342-0.15l-0.498-0.753l-0.156-0.465l-0.059-0.401l0.078-0.279l0.049-0.32l-0.537-0.753
		l-5.729-5.269l-0.156-0.328l-1.732-1.287l-2.529-1.186l-1.097-0.379l-0.742-0.134l-0.654,0.298l-0.537,0.109l-0.352-0.079
		l-0.391-0.201l-0.667-0.651l-0.391-0.48l-1.27-2.352l0.957-0.207l1.146-0.84l3.144-3.206l0.726,0.205l0.635,0.104l0.869,0.018
		l1.397-0.233l0.345-0.219l0.391-0.345l0.938-1.24l0.371-0.315l0.488-0.091l1.006,0.197l0.57,0.02l0.732-0.146l0.43-0.033
		l0.43-0.154l0.527-0.335l0.84-0.871l0.853-0.654l0.371-0.749l0.772-2.798L446.102,73.716z"/>
	<path class="st0" d="M451.338,65.814l0.641,0.91l-0.328,0.92l-1.446,1.445l-0.61,1.611l-0.661,0.631l-0.861,0.141l-0.82-0.717
		l0.466-1.198l-0.59-0.327l-1.087,0.166l-2.045,0.673l-0.615,0.467l-1.077,1.537l-0.323,1.159l0.907,0.39l1.974,0.058l0.82,0.442
		l0.418-0.406l0.143,0.369l-0.772,2.798l-0.371,0.749l-0.853,0.654l-0.84,0.871l-0.527,0.335l-0.43,0.154l-0.43,0.033l-0.732,0.146
		l-0.57-0.02l-1.006-0.197l-0.488,0.091l-0.371,0.315l-0.938,1.24l-0.391,0.345l-0.345,0.219l-1.397,0.233l-0.869-0.018
		l-0.635-0.104l-0.726-0.205l0.195-0.834l0.01-0.298l-0.039-0.373l-0.127-0.305l-0.195-0.28l-0.527-0.528l-1.133-0.82l-0.225-0.248
		l-0.166-0.28l-0.088-0.29l-0.029-0.299l-0.068-0.341l-0.088-0.187l-0.215-0.189l-0.488-0.317l-0.208-0.177l-0.137-0.171
		l-0.088-0.25l0.039-0.291l0.579-0.41l1.172-0.63l2.669-1.049l7.809-4.294l8.864-2.869L451.338,65.814z"/>
	<path class="st0" d="M443.854,47.111l0.559,0.89l0.205,0.755l-0.374,0.961l-0.431-1.134l-2.722,2.689l0.507,3.883l2.373,3.976
		l2.886,2.973l2.353,1.145l0.661,0.468l1.466,2.096l-0.266,0.182l-8.864,2.869l-7.809,4.294l-2.669,1.049l-1.172,0.63l-0.579,0.41
		l-0.039,0.291l0.088,0.25l0.137,0.171l0.208,0.177l0.488,0.317l0.215,0.189l0.088,0.187l0.068,0.341l0.029,0.299l0.088,0.29
		l0.166,0.28l0.225,0.248l1.133,0.82l0.527,0.528l0.195,0.28l0.127,0.305l0.039,0.373l-0.01,0.298l-0.195,0.834l-3.144,3.206
		l-1.146,0.84l-0.957,0.207l-0.264-0.574l-0.156-0.223l-0.234-0.268l-0.244-0.14l-0.264-0.055l-0.254,0.006l-0.54,0.142l-0.332,0.26
		l-0.371,0.422l-1.035,1.868l-1.035,2.469l-0.618,0.586l-1.914,0.61l-0.664-1.481l-2.464-3.662l-2.064-4.318l-0.459-1.265
		l-0.137-0.599l-0.107-0.288l-0.205-0.248l-0.361-0.195l-1.689-0.15l-3.577-1.223l-7.363-6.913l2.513-2.168l5.465-2.488l3.314-0.763
		l0.605-0.289l0.41-0.307l0.752-1.36l0.85-1.012l1.107-1l0.586-0.393l0.449-0.234l2.308-0.124l1.269,0.161l1.201,0.36l3.343,1.568
		l0.439,0.11l0.921,0.09l0.83-0.03l0.537-0.194l0.361-0.234l0.215-0.259l0.156-0.261l0.117-0.257l0.478-1.328l1.019-1.935
		l0.498-0.758l2.2-4.542l0.42-1.158l0.146-0.298l0.205-0.331l0.547-0.73l0.391-0.632l0.635-0.792l0.449-0.355l0.449-0.237
		l3.294-0.347l3.011-1.037L443.854,47.111z"/>
	<path class="st0" d="M372.124,44.117l5.024-2.056l0.769-0.473l1.323-2.163l1.153-0.608l8.304-0.119l2.404-0.959l1.538-1.665
		l0.882-0.58l0.851,0.351l0.646,0.383l0.692-0.139l0.672-0.328l1.85-0.451l1.476-0.676l1.338-0.896l0.892-0.912l1.281,0.735
		l1.159-0.213l2.327-1.602l1.312-0.69l1.071-0.284l2.773-0.058l1.394-0.567L414.025,30l0.661,0.419l0.508,0.496l0.646,0.248
		l5.382,0.135l0.01,0.232l0.133,0.754l0.031,3.576l-1.948,1.581l-2.394,1.043l-1.317,1.954l0.205,0.595l0.984,2.165l0.313,0.479
		l0.369,0.254l0.395,1.116l0.513,0.251l2.758,0.379l1.271-0.241l1.399-1.167l0.769-1.062l0.692-1.461l-0.02-1.294l-4.019-1.638
		l-0.605,0.077l-1.292,0.406l-0.723,0.01v-0.493l1.533-1.079l0.605-0.161l0.385-0.367l0.272-0.386l0.22-0.213l0.948-0.148
		l6.131,1.388l1.133-0.113l3.368-1.514l0.538,0.139l1.01,1.575l4.434,0.666l2.045,1.883l4.685,1.686l1.199,1.017l-2.02,0.534
		l-0.933,0.399l-0.882,0.637l-0.344-1.299l-1.753-0.225l-2.015,0.534l-1.128,0.991l0.461,1.293l1.651,0.63l1.907,0.087l1.22-0.344
		l0.436,0.685l-0.405,0.064l-3.011,1.037l-3.294,0.347l-0.449,0.237l-0.449,0.355l-0.635,0.792l-0.391,0.632l-0.547,0.73
		l-0.205,0.331l-0.146,0.298l-0.42,1.158l-2.2,4.542l-0.498,0.758l-1.019,1.935l-0.478,1.328l-0.117,0.257l-0.156,0.261
		l-0.215,0.259l-0.361,0.234l-0.537,0.194l-0.83,0.03l-0.921-0.09l-0.439-0.11l-3.343-1.568l-1.201-0.36l-1.269-0.161l-2.308,0.124
		l-0.449,0.234l-0.586,0.393l-1.107,1l-0.85,1.012l-0.752,1.36l-0.41,0.307l-0.605,0.289l-3.314,0.763l-5.465,2.488l-2.513,2.168
		l-0.684,0.24l-0.615,0.362l-0.576,0.498l-6.061,6.415l-0.586,0.467l-0.303,0.158l-0.293,0.081l-0.283,0.029l-0.264-0.014
		l-0.576-0.12l-0.286-0.116l-0.84-0.561l-0.342-0.473l-0.391-0.701l-0.508-1.479l-0.137-0.711l-0.039-0.494l0.361-1.016l0.146-0.315
		l0.117-0.335l0.137-0.333l0.234-0.675l0.117-0.466l0.088-0.543l0.039-0.63l-0.01-0.317l-0.137-0.372l-0.225-0.384l-0.625-0.545
		l-0.752-0.488l-2.269-0.732l-0.596-0.305l-0.576-0.403l-2.093-1.986l-0.312-0.444l-0.322-0.57l-0.82-2.277l-1.536-3.337
		l-0.576-1.954l-0.244-0.597l-0.273-0.408l-0.361-0.432l-0.791-0.693l-0.459-0.287l-0.394-0.145l-3.929,0.077l-0.283-0.061
		l-0.303-0.212l-0.273-0.334l-0.264-0.694l-0.117-0.465l-0.068-0.445l0.098-1.102l0.361-1.694l0.098-1.208l-0.147-2.718
		L372.124,44.117z"/>
	<path class="st0" d="M360.57,55.801l0.482-0.222l1.394-1.358l1.958-2.399l1.938-3.756l0.841-0.562l0.615-0.305l1.763-1.897
		l0.666-0.405l1.896-0.778l0.091,0.356l0.147,2.718l-0.098,1.208l-0.361,1.694l-0.098,1.102l0.068,0.445l0.117,0.465l0.264,0.694
		l0.273,0.334l0.303,0.212l0.283,0.061l3.929-0.077l0.394,0.145l0.459,0.287l0.791,0.693l0.361,0.432l0.273,0.408l0.244,0.597
		l0.576,1.954l1.536,3.337l0.82,2.277l0.322,0.57l0.312,0.444l2.093,1.986l0.576,0.403l0.596,0.305l2.269,0.732l0.752,0.488
		l0.625,0.545l0.225,0.384l0.137,0.372l0.01,0.317l-0.039,0.63l-0.088,0.543l-0.117,0.466l-0.234,0.675l-0.137,0.333l-0.117,0.335
		l-0.146,0.315l-0.361,1.016l0.039,0.494l0.137,0.711l0.508,1.479l0.391,0.701l0.342,0.473l0.84,0.561l0.286,0.116l0.576,0.12
		l0.264,0.014l0.283-0.029l0.293-0.081l0.303-0.158l0.586-0.467l6.061-6.415l0.576-0.498l0.615-0.362l0.684-0.24l7.363,6.913
		l3.577,1.223l1.689,0.15l0.361,0.195l0.205,0.248l0.107,0.288l0.137,0.599l0.459,1.265l2.064,4.318l2.464,3.662l0.664,1.481
		l-3.724,3.118l-1.156,1.256l-0.254,0.601l-0.137,0.435l-1.855,2.684l-0.771,1.894l-3.802,0.425l-1.39,0.312l-1.016,0.419
		l-2.728,1.47l-0.566,0.235l-0.527,0.107l-0.342-0.026l-0.41-0.107l-0.56-0.318l-0.391-0.301l-1.397-1.462l-0.566-0.388l-0.85-0.453
		l-0.599-0.21l-0.781-0.053l-3.616,0.243l-1.885,0.336l-0.57,0.279l-0.518,0.419l-0.225,0.257l-0.752,1.044l-2.503,4.565
		l-0.518,0.089l-0.781-0.15l-3.275-1.787l-1.133-0.793l-0.4-0.174l-0.492-0.105l-0.849-0.008l-0.898,0.138l-3.646,1.342
		l-0.645,0.123l-1.527-1.035l-5.14-4.929l1.182-0.672l0.312-0.225l0.225-0.277l0.117-0.283l0.049-0.267l0.059-2.263l0.107-0.729
		l0.107-0.296l0.137-0.28l0.413-0.577l0.996-1.124l0.205-0.29l-0.078-0.906l-0.371-1.422l-2.113-5.693l-0.488-0.623l-0.244-0.452
		l-0.186-0.544l-0.117-1.453l0.4-3.947l-0.029-0.357l-0.107-0.357l-0.342-0.402l-0.605-0.483l-0.674-0.419l-0.267-0.126
		l-3.607-0.597l-0.332-0.132l-0.342-0.209l-0.312-0.244l-0.225-0.313l-0.098-0.329l0.137-0.455l0.147-0.35l0.166-0.321l0.117-0.386
		l0.098-0.451l0.029-0.709l0.068-0.417l0.127-0.358l0.166-0.285l0.244-0.274l2.327-1.938l0.244-0.281l0.176-0.295l-0.059-0.511
		l-0.244-0.655l-1.191-1.962l-2.386-2.749l-0.176-0.35l-0.088-0.387l0.166-0.566l0.215-0.236l0.244-0.143l0.166-0.045l1.165-0.452
		l0.215-0.167l-0.41-0.823l-2.699-2.898L360.57,55.801z"/>
	<path class="st0" d="M395.733,175.396l-3.489-0.424l-1.195,0.008l-3.333,0.971l-0.078-0.536l-0.166-0.526l-0.42-0.864l-0.361-0.546
		l-0.488-0.532l-0.518-0.404l-2.279-1.4l-1.289-0.628l-1.585-0.296l-0.361-0.194l-0.352-0.338l-0.469-0.756l-0.752-1.781
		l-0.381-0.368l-0.605-0.404l-2.484-1.147l-0.264-0.026l-0.273,0.032l-0.293,0.078l-0.843,0.35l-0.283,0.068l-0.293,0.024
		l-0.274-0.028l-0.264-0.088l-1.191-1.366l-3.89-5.577l0.869-2.975l0.098-0.572l0.264-2.894V149.2l0.078-0.654l0.078-0.291
		l0.088-0.229l0.205-0.371l0.225-0.253l2.24-1.894l0.205-0.303l0.166-0.325l0.234-0.639l0.166-0.665l0.205-1.159l0.244-0.575
		l0.908-1.391l1.507-1.657l0.352-0.579l0.342-0.875l0.439-1.72l0.342-2.111l0.068-1.383l-0.195-0.624l-0.361-0.797l-0.986-1.573
		l-0.547-0.671l-0.469-0.451l-3.864-1.986l-0.85-0.588l-0.244-0.411l-0.205-0.55l-0.117-1.046l-0.02-0.566l0.137-1.619l-0.01-1.121
		l-0.078-0.641l-0.166-0.488l-0.264-0.601l-1.23-2.042l-1.634-1.992l-0.645-1.082l-0.127-0.454l-0.068-0.549l0.049-1.028
		l0.137-0.535l0.186-0.438l0.215-0.301l0.303-0.598l0.098-0.295l0.088-0.608l-0.029-0.594l-0.078-0.341l-0.771-1.617l-2.923-4.473
		l2.679-1.034l1.201-0.225l1.048,0.103l1.016,0.285l5.14,4.929l1.527,1.035l0.645-0.123l3.646-1.342l0.898-0.138l0.849,0.008
		l0.492,0.105l0.4,0.174l1.133,0.793l3.275,1.787l0.781,0.15l0.518-0.089l2.503-4.565l0.752-1.044l0.225-0.257l0.518-0.419
		l0.57-0.279l1.885-0.336l3.616-0.243l0.781,0.053l0.599,0.21l0.85,0.453l0.566,0.388l1.397,1.462l0.391,0.301l0.56,0.318
		l0.41,0.107l0.342,0.026l0.527-0.107l0.566-0.235l2.728-1.47l1.016-0.419l1.39-0.312l3.802-0.425l0.898,1.711l0.283,1.488
		l-0.01,0.524l-0.059,0.467l-0.664,2.015l-0.498,0.911l-0.853,1.2l-1.27,1.505l-1.23,1.153l-4.124,2.58l-1.546,0.622l-0.332,0.216
		l-0.488,0.466l-0.098,0.363l0.078,0.349l0.215,0.309l2.308,2.215l0.645,0.504l0.674,0.397l2.845,0.74l3.099,1.161l0.605,0.391
		l0.254,0.222l0.273,0.516l0.244,0.782l0.342,1.701l0.078,0.812l0.02,0.59l-0.166,0.653l-0.205,0.602l-0.332,0.616l-1.152,1.597
		l-13.743,11.386l-0.843,0.985l-0.469,0.687v0.331l0.02,0.289l0.459,1.838l0.088,0.647l0.029,0.687l-0.068,0.635l-0.068,0.307
		l-0.918,2.439l-0.078,0.618l0.059,0.538l0.049,0.249l0.078,0.219l0.088,0.205l0.371,0.624l0.478,0.61l0.413,0.421l0.205,0.317
		l0.137,0.397l-0.029,0.69l-0.215,0.299l-0.215,0.171l-1.605,0.345l-1.172,0.517l-2.65,1.692l-0.684,0.225l-0.654,0.07l-0.677-0.024
		l-0.791-0.118l-4.388-1.483l-0.42-0.016l-0.459,0.088l-0.684,0.369l-0.267,0.339l-0.098,0.343l0.078,0.317l0.12,0.285l0.137,0.281
		l8.463,10.384l2.503,4.808l0.068,0.26L395.733,175.396z"/>
	<path class="st0" d="M387.715,175.952l3.333-0.971l1.195-0.008l3.489,0.424l1.719,2.242l0.469,0.955l0.01,0.268l-0.01,0.266
		l-0.312,2.419l-0.264,0.914l-0.4,2.346l0.01,0.253l0.039,0.215l0.088,0.261l0.176,0.313l0.283,0.375l4.743,4.448l0.43,0.233
		l1.113,0.263l0.674,0.05l0.605-0.044l0.293-0.064l0.365,0.044l0.381,0.167l3.89,4.074l0.176,0.265l0.527,1.118l0.156,0.259
		l0.234,0.287l0.586,0.622l0.498,0.354l0.599,0.342l1.777,0.687l4.622,0.918l5.631,1.807l0.303,0.058l0.322,0.014l0.273-0.056
		l3.128-1.119l0.381,0.247l0.371,0.597l2.22,7.825l0.332,0.646l1.191,1.679l-4.905,11.079l-7.233,11.978l-1.426,3.036l-0.433,1.142
		l-0.186,0.647l-0.156,1.072v0.779l0.361,1.547l0.107,0.269l0.117,0.241l0.169,0.186l0.215,0.093l6.823,0.824l1.357,0.383
		l5.101,2.573l0.273,0.231l0.303,0.393l0.062,0.312l0.02,0.32l-0.218,1.365l-0.332,1.311l-0.185,0.484l-0.176,0.363l-0.195,0.265
		l-0.234,0.253l-0.264,0.213l-3.011,1.567l-0.566,0.478l-0.947,1.097l-0.273,0.229l-0.312,0.122l-0.293,0.051l-1.419-0.038
		l-0.586,0.069l-0.283,0.077l-0.508,0.247l-0.41,0.28l-2.357,2.079l-0.576,0.414l-1.253,0.655l-3.763,1.29l-1.758,0.96l-0.791,0.735
		l-0.589,0.725l-0.234,0.428l-0.078,0.355l0.127,0.274l0.225,0.244l1.048,0.914l0.42,0.575l0.342,0.595l0.439,1.052l0.117,0.422
		l0.088,0.49l0.059,0.807l-0.107,0.441l-0.215,0.295l-0.264,0.112l-0.264,0.051h-0.254l-0.254-0.043l-0.518-0.191l-1.234-0.632
		l-0.215-0.654l-0.303-0.601l-0.186-0.278l-0.244-0.26l-0.596-0.5l-1.25-0.804l-0.599-0.258l-0.498,0.01l-0.654,0.102l-2.523,0.847
		l-0.82,0.526l-1.885,1.589l0.273-9.017l-0.059-0.284l-0.088-0.288l-0.443-0.434l-0.723-0.493l-2.962-1.438l-0.439-0.272
		l-1.641-1.292l-0.517-0.515l-0.361-0.444l-0.931-1.476l-0.537-0.604l-0.508-0.328l-3.968-1.475l-0.459-0.261l-0.586-0.409
		l-1.693-1.448l-1.318-1.424l-0.703-0.952l-0.247-0.458l-0.371-0.996l-0.127-0.613l-0.029-0.403l0.01-0.318l0.039-0.298l0.127-0.573
		l1.497-3.865l0.059-0.32l-0.01-0.305l-0.176-0.236l-0.303-0.137l-0.596,0.095l-0.423,0.16l-0.889,0.469l-0.537,0.2l-0.264,0.038
		l-0.4-0.085l-0.488-0.188l-3.87-2.068l-6.5-1.221l-6.061-0.054l-10.185-4.057l15.435-8.928l0.566-0.508l-0.098-0.25l-0.225-0.23
		l-0.882-0.488l-0.254-0.234l-0.234-0.272l-0.185-0.286l-0.137-0.296l-0.068-0.315l0.185-0.47l0.391-0.615l2.064-2.319l0.391-0.622
		l0.498-1.098l0.107-0.274l0.469-0.91l0.605-0.862l0.374-0.342l0.361-0.141l1.064,0.3l0.518,0.074l0.215-0.024l0.127-0.026
		l2.464-1.294l3.177-1.004l1.631-0.922l0.469-0.441l0.273-0.346l0.078-0.27l0.049-0.266l0.02-0.267l-0.01-0.231l-0.029-0.163
		l-0.068-0.241l-0.527-1.199l-0.273-0.78l-0.127-0.792l-0.078-1.349l0.029-0.931l0.547-3.237l0.029-0.836l-0.059-0.331l-0.098-0.323
		l-0.176-0.311l-0.215-0.269l-0.273-0.209l-0.674-0.355l-4.73-1.486l-0.225-0.12l-0.521-0.371l-0.195-0.221l-0.088-0.157
		l-0.078-0.251l-0.049-0.263l-0.01-0.299l0.01-0.283l0.049-0.295l0.303-1.18l0.98-2.433l0.361-0.555l0.322-0.395l0.635-0.391
		l0.977-0.856l0.312-0.413l0.215-0.363l0.716-2.121l0.234-0.509l0.264-0.405l0.547-0.565l0.625-0.475l2.181-1.292l0.85-0.801
		l0.713-0.799l0.342-0.499l0.244-0.475l0.244-1.099L387.715,175.952z"/>
	<path class="st0" d="M443.117,125.275l-2.07,3.832l0.02,1.152l3.48,1.848l0.332,0.346l0.371,0.525l0.557,1.077l0.205,0.579
		l0.078,0.523l-0.576,3.584l-0.732,2.855l-0.423,1.198l-0.127,0.265l-0.674,1.077l-2.972,3.768l-0.332,0.602l-0.098,0.291
		l0.01,0.319l0.176,0.552l7.155,14.505l0.609,0.869l0.488,0.985l0.772,2.532l-2.767,0.919l-1.211,0.824l-0.41,0.584l-0.176,0.382
		l-0.078,0.362l0.039,0.302l0.937,2.561l0.049,0.588l-0.039,0.576l-0.283,0.55l-1.312,1.641l-0.713,1.167l-1.943,4.84l-0.264,0.886
		l-0.107,0.607l0.068,0.283l0.225,0.587l0.508,1.065l0.195,0.515l0.137,0.567l0.156,1.257l0.02,0.774l-0.195,2.133v0.729l0.01,0.156
		l0.039,0.247l0.166,0.514l0.283,0.55l1.504,2.195l0.244,0.576l0.101,0.297l0.078,1.004l-0.108,2.954l-1.566,0.159l-0.781,0.314
		l-1.341,0.856l-2.49,2.228l-3.294,3.83l-1.185,1.857l-0.498,0.954l-1.191-1.679l-0.332-0.646l-2.22-7.825l-0.371-0.597
		l-0.381-0.247l-3.128,1.119l-0.273,0.056l-0.322-0.014l-0.303-0.058l-5.631-1.807l-4.622-0.918l-1.777-0.687l-0.599-0.342
		l-0.498-0.354l-0.586-0.622l-0.234-0.287l-0.156-0.259l-0.527-1.118l-0.176-0.265l-3.89-4.074l-0.381-0.167l-0.365-0.044
		l-0.293,0.064l-0.605,0.044l-0.674-0.05l-1.113-0.263l-0.43-0.233l-4.743-4.448l-0.283-0.375l-0.176-0.313l-0.088-0.261
		l-0.039-0.215l-0.01-0.253l0.4-2.346l0.264-0.914l0.312-2.419l0.01-0.266l-0.01-0.268l-0.469-0.955l-1.719-2.242l-0.098-0.68
		l-0.068-0.26l-2.503-4.808l-8.463-10.384l-0.137-0.281l-0.12-0.285l-0.078-0.317l0.098-0.343l0.267-0.339l0.684-0.369l0.459-0.088
		l0.42,0.016l4.388,1.483l0.791,0.118l0.677,0.024l0.654-0.07l0.684-0.225l2.65-1.692l1.172-0.517l1.605-0.345l0.215-0.171
		l0.215-0.299l0.029-0.69l-0.137-0.397l-0.205-0.317l-0.413-0.421l-0.478-0.61l-0.371-0.624l-0.088-0.205l-0.078-0.219l-0.049-0.249
		l-0.059-0.538l0.078-0.618l0.918-2.439l0.068-0.307l0.068-0.635l-0.029-0.687l-0.088-0.647l-0.459-1.838l-0.02-0.289v-0.331
		l0.469-0.687l0.843-0.985l13.743-11.386l1.338,0.491l0.586,0.129l1.279,0.093l5.592-0.801l2.23-0.052l1.982,1.208l0.586,0.26
		l2.493,0.453l0.322,0.137l0.566,0.332l0.433,0.356l1.699,1.719l0.303,0.169l0.391-0.032l0.381-0.252l0.488-0.803l0.218-0.527
		l0.127-0.451l0.41-2.752l0.176-0.731l0.146-0.246l0.195-0.117l0.244,0.258l0.439,0.582l0.391,0.046l0.488-0.221l0.898-0.894
		l0.394-0.516l0.547-1.031l1.045-0.719L443.117,125.275z"/>
	<path class="st0" d="M451.603,98.896l-0.12,5.535l0.169,1.593l0.156,0.305l0.205,0.291l0.244,0.236l0.283,0.164l0.205,0.083
		l0.391,0.057l0.039,4.485l-0.244,1.309l-0.859,0.666l-0.361,0.4l-0.039,0.307l0.156,0.287l0.303,0.372l0.293,0.49l0.195,0.827
		l-0.107,0.45l-0.244,0.274l-4.528,0.944l-0.342,0.137l-0.43,0.278l-0.156,0.299l-0.02,0.311l0.303,0.964v0.516l-0.088,0.657
		l-0.322,1.29l-0.254,0.653l-0.273,0.476l-0.225,0.256l-0.547,0.411l-0.596,0.341l-1.673,0.713l-3.743,1.263l-1.045,0.719
		l-0.547,1.031l-0.394,0.516l-0.898,0.894l-0.488,0.221l-0.391-0.046l-0.439-0.582l-0.244-0.258l-0.195,0.117l-0.146,0.246
		l-0.176,0.731l-0.41,2.752l-0.127,0.451l-0.218,0.527l-0.488,0.803l-0.381,0.252l-0.391,0.032l-0.303-0.169l-1.699-1.719
		l-0.433-0.356l-0.566-0.332l-0.322-0.137l-2.493-0.453l-0.586-0.26l-1.982-1.208l-2.23,0.052l-5.592,0.801l-1.279-0.093
		l-0.586-0.129l-1.338-0.491l1.152-1.597l0.332-0.616l0.205-0.602l0.166-0.653l-0.02-0.59l-0.078-0.812l-0.342-1.701l-0.244-0.782
		l-0.273-0.516l-0.254-0.222l-0.605-0.391l-3.099-1.161l-2.845-0.74l-0.674-0.397l-0.645-0.504l-2.308-2.215l-0.215-0.309
		l-0.078-0.349l0.098-0.363l0.488-0.466l0.332-0.216l1.546-0.622l4.124-2.58l1.23-1.153l1.27-1.505l0.853-1.2l0.498-0.911
		l0.664-2.015l0.059-0.467l0.01-0.524l-0.283-1.488l-0.898-1.711l0.771-1.894l1.855-2.684l0.137-0.435l0.254-0.601l1.156-1.256
		l3.724-3.118l1.914-0.61l0.618-0.586l1.035-2.469l1.035-1.868l0.371-0.422l0.332-0.26l0.54-0.142l0.254-0.006l0.264,0.055
		l0.244,0.14l0.234,0.268l0.156,0.223l0.264,0.574l1.27,2.352l0.391,0.48l0.667,0.651l0.391,0.201l0.352,0.079l0.537-0.109
		l0.654-0.298l0.742,0.134l1.097,0.379l2.529,1.186l1.732,1.287l0.156,0.328l5.729,5.269l0.537,0.753l-0.049,0.32l-0.078,0.279
		l0.059,0.401l0.156,0.465l0.498,0.753l0.342,0.15l0.352-0.03l0.264-0.216l2.337-1.368l0.596-0.235l0.576-0.134L451.603,98.896z"/>
</g>
<g id="Copyright">
	<text transform="matrix(1 0 0 1 681.6426 577.5916)" class="st1 st2">© Vemaps.com</text>
</g>
</svg>
